<?xml version="1.0" encoding="UTF-8" standalone="no"?>
<svg
   xmlns:dc="http://purl.org/dc/elements/1.1/"
   xmlns:cc="http://creativecommons.org/ns#"
   xmlns:rdf="http://www.w3.org/1999/02/22-rdf-syntax-ns#"
   xmlns:svg="http://www.w3.org/2000/svg"
   xmlns="http://www.w3.org/2000/svg"
   xmlns:sodipodi="http://sodipodi.sourceforge.net/DTD/sodipodi-0.dtd"
   xmlns:inkscape="http://www.inkscape.org/namespaces/inkscape"
   viewBox="0 0 256.00034 155.60899"
   version="1.1"
   id="svg47"
   sodipodi:docname="Closed-Sign.svg"
   width="256.00034"
   height="155.60899"
   inkscape:version="1.0.2 (e86c8708, 2021-01-15)">
  <metadata
     id="metadata53">
    <rdf:RDF>
      <cc:Work
         rdf:about="">
        <dc:format>image/svg+xml</dc:format>
        <dc:type
           rdf:resource="http://purl.org/dc/dcmitype/StillImage" />
        <dc:title />
      </cc:Work>
    </rdf:RDF>
  </metadata>
  <defs
     id="defs51" />
  <sodipodi:namedview
     pagecolor="#ffffff"
     bordercolor="#666666"
     borderopacity="1"
     objecttolerance="10"
     gridtolerance="10"
     guidetolerance="10"
     inkscape:pageopacity="1"
     inkscape:pageshadow="2"
     inkscape:window-width="1781"
     inkscape:window-height="967"
     id="namedview49"
     showgrid="false"
     inkscape:zoom="3.0234375"
     inkscape:cx="64.806267"
     inkscape:cy="57.91185"
     inkscape:window-x="1983"
     inkscape:window-y="23"
     inkscape:window-maximized="0"
     inkscape:current-layer="layer4"
     inkscape:document-rotation="0"
     inkscape:pagecheckerboard="true" />
  <g
     inkscape:groupmode="layer"
     id="layer3"
     inkscape:label="Background layer">
    <rect
       style="fill:#ffffff;stroke-width:1.26055"
       id="rect18"
       width="248.06201"
       height="100.21706"
       x="4.2997413"
       y="31.75194" />
  </g>
  <g
     inkscape:groupmode="layer"
     id="layer4"
     inkscape:label="Closed Sign">
    <path
       style="color:#000000;font-style:normal;font-variant:normal;font-weight:normal;font-stretch:normal;font-size:medium;line-height:normal;font-family:sans-serif;font-variant-ligatures:normal;font-variant-position:normal;font-variant-caps:normal;font-variant-numeric:normal;font-variant-alternates:normal;font-variant-east-asian:normal;font-feature-settings:normal;font-variation-settings:normal;text-indent:0;text-align:start;text-decoration:none;text-decoration-line:none;text-decoration-style:solid;text-decoration-color:#000000;letter-spacing:normal;word-spacing:normal;text-transform:none;writing-mode:lr-tb;direction:ltr;text-orientation:mixed;dominant-baseline:auto;baseline-shift:baseline;text-anchor:start;white-space:normal;shape-padding:0;shape-margin:0;inline-size:0;clip-rule:nonzero;display:inline;overflow:visible;visibility:visible;opacity:1;isolation:auto;mix-blend-mode:normal;color-interpolation:sRGB;color-interpolation-filters:linearRGB;solid-color:#000000;solid-opacity:1;vector-effect:none;fill:#005500;fill-opacity:1;fill-rule:nonzero;stroke:none;stroke-width:5.56523;stroke-linecap:butt;stroke-linejoin:miter;stroke-miterlimit:4;stroke-dasharray:none;stroke-dashoffset:0;stroke-opacity:1;color-rendering:auto;image-rendering:auto;shape-rendering:auto;text-rendering:auto;enable-background:accumulate;stop-color:#000000;stop-opacity:1"
       d="m 128.33092,-67.142119 c -6.13844,0 -11.13045,4.992007 -11.13045,11.130451 0,6.138443 4.99201,11.13045 11.13045,11.13045 6.13845,0 11.13045,-4.992007 11.13045,-11.13045 0,-6.138444 -4.992,-11.130451 -11.13045,-11.130451 z M 108.50481,-45.924698 38.069937,-0.35941795 H 58.591704 L 115.98308,-37.57686 c -3.16661,-2.10922 -5.73079,-4.947485 -7.47827,-8.347838 z m 39.65223,0 c -1.74192,3.400353 -4.31722,6.238618 -7.47827,8.347838 l 57.39138,37.21744205 H 218.418 Z M 5.8959794,10.771032 c -3.072,0 -5.56523005,2.493221 -5.56523005,5.565225 V 149.90166 c 0,3.07756 2.49323005,5.56522 5.56523005,5.56522 H 250.76587 c 3.07757,0 5.56523,-2.48766 5.56523,-5.56522 V 16.336257 c 0,-3.072004 -2.48766,-5.565225 -5.56523,-5.565225 z M 39.28733,49.727611 c 9.204882,0 16.695675,7.49079 16.695675,16.69567 v 5.56523 h -11.13045 v -5.56523 c 0,-3.072 -2.498786,-5.56522 -5.565225,-5.56522 -3.066439,0 -5.565225,2.49322 -5.565225,5.56522 V 99.81463 c 0,3.07201 2.498786,5.56523 5.565225,5.56523 3.066439,0 5.565225,-2.49322 5.565225,-5.56523 v -5.56522 h 11.13045 v 5.56522 c 0,9.20488 -7.490793,16.69568 -16.695675,16.69568 -9.204882,0 -16.695675,-7.4908 -16.695675,-16.69568 V 66.423281 c 0,-9.20488 7.490793,-16.69567 16.695675,-16.69567 z m 22.2609,0 h 11.13045 v 55.652249 h 16.695675 v 11.13045 H 61.54823 Z m 44.52179,0 c 9.20489,0 16.69568,7.49079 16.69568,16.69567 V 99.81463 c 0,9.20488 -7.49079,16.69568 -16.69568,16.69568 -9.204873,0 -16.695665,-7.4908 -16.695665,-16.69568 V 66.423281 c 0,-9.20488 7.490792,-16.69567 16.695665,-16.69567 z m 38.95658,0 c 9.20488,0 16.69567,7.49079 16.69567,16.69567 v 5.56523 h -11.13045 v -5.56523 c 0,-3.072 -2.49322,-5.56522 -5.56522,-5.56522 -3.072,0 -5.56523,2.49322 -5.56523,5.56522 v 7.65219 l 22.2609,11.130449 v 14.60871 c 0,9.20488 -7.49079,16.69568 -16.69567,16.69568 -9.20488,0 -16.69568,-7.4908 -16.69568,-16.69568 v -5.56522 h 11.13045 v 5.56522 c 0,3.07201 2.49323,5.56523 5.56523,5.56523 3.072,0 5.56522,-2.49322 5.56522,-5.56523 V 92.16245 L 128.33092,81.032 V 66.423281 c 0,-9.20488 7.4908,-16.69567 16.69568,-16.69567 z m 22.2609,0 h 27.82612 v 11.13045 h -16.69567 v 16.69567 h 16.69567 V 88.68418 h -16.69567 v 16.69568 h 16.69567 v 11.13045 H 167.2875 Z m 33.39135,0 h 16.69567 c 9.20488,0 16.69568,7.49079 16.69568,16.69567 V 99.81463 c 0,9.20488 -7.4908,16.69568 -16.69568,16.69568 h -16.69567 z m -94.60883,11.13045 c -3.06643,0 -5.56522,2.49322 -5.56522,5.56522 V 99.81463 c 0,3.07201 2.49879,5.56523 5.56522,5.56523 3.06644,0 5.56523,-2.49322 5.56523,-5.56523 V 66.423281 c 0,-3.072 -2.49879,-5.56522 -5.56523,-5.56522 z m 105.73928,0 v 44.521799 h 5.56522 c 3.072,0 5.56523,-2.49322 5.56523,-5.56523 V 66.423281 c 0,-3.072 -2.49323,-5.56522 -5.56523,-5.56522 z"
       id="path45" />
  </g>
</svg>
