<?xml version="1.0" encoding="UTF-8" standalone="no"?>
<svg
   xmlns:dc="http://purl.org/dc/elements/1.1/"
   xmlns:cc="http://creativecommons.org/ns#"
   xmlns:rdf="http://www.w3.org/1999/02/22-rdf-syntax-ns#"
   xmlns:svg="http://www.w3.org/2000/svg"
   xmlns="http://www.w3.org/2000/svg"
   xmlns:sodipodi="http://sodipodi.sourceforge.net/DTD/sodipodi-0.dtd"
   xmlns:inkscape="http://www.inkscape.org/namespaces/inkscape"
   viewBox="0 0 62.060606 48.627451"
   version="1.1"
   id="svg32"
   sodipodi:docname="Open-Sign.svg"
   width="256"
   height="155"
   inkscape:version="1.0.2 (e86c8708, 2021-01-15)">
  <metadata
     id="metadata38">
    <rdf:RDF>
      <cc:Work
         rdf:about="">
        <dc:format>image/svg+xml</dc:format>
        <dc:type
           rdf:resource="http://purl.org/dc/dcmitype/StillImage" />
        <dc:title />
      </cc:Work>
    </rdf:RDF>
  </metadata>
  <defs
     id="defs36" />
  <sodipodi:namedview
     pagecolor="#ffffff"
     bordercolor="#666666"
     borderopacity="1"
     objecttolerance="10"
     gridtolerance="10"
     guidetolerance="10"
     inkscape:pageopacity="0"
     inkscape:pageshadow="2"
     inkscape:window-width="1584"
     inkscape:window-height="967"
     id="namedview34"
     showgrid="false"
     inkscape:zoom="4.1953125"
     inkscape:cx="128"
     inkscape:cy="77.5"
     inkscape:window-x="120"
     inkscape:window-y="23"
     inkscape:window-maximized="0"
     inkscape:current-layer="layer2"
     inkscape:document-rotation="0"
     units="px" />
  <g
     inkscape:groupmode="layer"
     id="layer1"
     inkscape:label="Background">
    <rect
       style="fill:#ffffff;stroke-width:0.313726"
       id="rect18"
       width="78.96769"
       height="35.445721"
       x="-8.5283194"
       y="8.5997009" />
  </g>
  <g
     inkscape:groupmode="layer"
     id="layer2"
     inkscape:label="Open Sign">
    <path
       d="m 31.094864,-21.01872 c -1.925786,0 -3.491897,1.562402 -3.491897,3.483617 0,1.921216 1.566111,3.483619 3.491897,3.483619 1.925786,0 3.491906,-1.562403 3.491906,-3.483619 0,-1.921215 -1.56612,-3.483617 -3.491906,-3.483617 z m -6.219949,6.640646 -22.0971849,14.26106197 h 6.438192 L 27.22104,-11.76536 c -0.993446,-0.660146 -1.797898,-1.548468 -2.346125,-2.612714 z m 12.439899,0 c -0.546483,1.064246 -1.354423,1.952568 -2.346117,2.612714 l 18.005109,11.64834797 h 6.38363 z M -7.3160467,3.3666057 c -0.9637631,0 -1.7459502,0.7803306 -1.7459502,1.7418088 V 46.911828 c 0,0.96322 0.7821871,1.741809 1.7459502,1.741809 H 69.505776 c 0.965513,0 1.745953,-0.778589 1.745953,-1.741809 V 5.1084145 c 0,-0.9614782 -0.78044,-1.7418088 -1.745953,-1.7418088 z M 7.5245351,15.559268 c 3.3696829,0 6.1108259,2.73464 6.1108259,6.096331 v 8.709044 c 0,3.361691 -2.741143,6.096332 -6.1108259,6.096332 -3.369686,0 -6.1108286,-2.734641 -6.1108286,-6.096332 v -8.709044 c 0,-3.361691 2.7411426,-6.096331 6.1108286,-6.096331 z m 9.6027239,0 h 5.237849 c 3.851573,0 6.983803,3.124805 6.983803,6.967236 0,3.84243 -3.13223,6.967235 -6.983803,6.967235 h -1.745944 v 6.967236 h -3.491905 v -6.967236 -3.483617 z m 15.713558,0 h 10.4757 v 3.483617 h -6.983803 v 5.225428 h 5.23785 v 3.483617 h -5.23785 v 5.225427 h 6.983803 v 3.483618 h -10.4757 z m 13.967606,0 h 4.801357 l 3.92839,13.117998 V 15.559268 h 3.491906 V 36.460975 H 54.22871 L 50.30032,23.342976 V 36.460975 H 46.808423 Z M 7.5245351,19.042885 c -1.443904,0 -2.618928,1.172238 -2.618928,2.612714 v 8.709044 c 0,1.440476 1.175024,2.612714 2.618928,2.612714 1.443897,0 2.6189209,-1.172238 2.6189209,-2.612714 v -8.709044 c 0,-1.440476 -1.1750239,-2.612714 -2.6189209,-2.612714 z m 13.0946289,0 v 6.967237 h 1.745944 c 1.925787,0 3.491906,-1.562403 3.491906,-3.483618 0,-1.921215 -1.566119,-3.483619 -3.491906,-3.483619 z"
       id="path30"
       style="stroke-width:1.74388;fill:#550000" />
  </g>
</svg>
