<?xml version="1.0" encoding="UTF-8" standalone="no"?>
<svg
   xmlns:dc="http://purl.org/dc/elements/1.1/"
   xmlns:cc="http://creativecommons.org/ns#"
   xmlns:rdf="http://www.w3.org/1999/02/22-rdf-syntax-ns#"
   xmlns:svg="http://www.w3.org/2000/svg"
   xmlns="http://www.w3.org/2000/svg"
   xmlns:sodipodi="http://sodipodi.sourceforge.net/DTD/sodipodi-0.dtd"
   xmlns:inkscape="http://www.inkscape.org/namespaces/inkscape"
   viewBox="0 0 62.060606 52.078431"
   version="1.1"
   id="svg32"
   sodipodi:docname="Open-Sign.svg"
   width="256"
   height="166"
   inkscape:version="1.0.2 (e86c8708, 2021-01-15)">
  <metadata
     id="metadata38">
    <rdf:RDF>
      <cc:Work
         rdf:about="">
        <dc:format>image/svg+xml</dc:format>
        <dc:type
           rdf:resource="http://purl.org/dc/dcmitype/StillImage" />
        <dc:title></dc:title>
      </cc:Work>
    </rdf:RDF>
  </metadata>
  <defs
     id="defs36" />
  <sodipodi:namedview
     pagecolor="#ffffff"
     bordercolor="#666666"
     borderopacity="1"
     objecttolerance="10"
     gridtolerance="10"
     guidetolerance="10"
     inkscape:pageopacity="0"
     inkscape:pageshadow="2"
     inkscape:window-width="1469"
     inkscape:window-height="939"
     id="namedview34"
     showgrid="false"
     inkscape:zoom="1.9811008"
     inkscape:cx="28.648711"
     inkscape:cy="78.30191"
     inkscape:window-x="17"
     inkscape:window-y="23"
     inkscape:window-maximized="0"
     inkscape:current-layer="layer2"
     inkscape:document-rotation="0"
     units="px" />
  <g
     inkscape:groupmode="layer"
     id="layer1"
     inkscape:label="Background">
    <rect
       style="fill:#ffffff;stroke-width:0.313726"
       id="rect18"
       width="78.96769"
       height="35.445721"
       x="-8.5283194"
       y="8.5997009" />
  </g>
  <g
     inkscape:groupmode="layer"
     id="layer2"
     inkscape:label="Open Sign"
     style="opacity:1">
    <path
       d="m 31.253223,-27.789076 c -1.925786,0 -3.491897,1.788803 -3.491897,3.988412 0,2.19961 1.566111,3.988413 3.491897,3.988413 1.925786,0 3.491906,-1.788803 3.491906,-3.988413 0,-2.199609 -1.56612,-3.988412 -3.491906,-3.988412 z m -6.219949,7.60291 -22.0971847,16.3275671 h 6.438192 L 27.379399,-17.194854 c -0.993446,-0.755806 -1.797898,-1.772851 -2.346125,-2.991312 z m 12.439899,0 c -0.546483,1.218461 -1.354423,2.235506 -2.346117,2.991312 l 18.005109,13.3362551 h 6.38363 z M -7.1576875,0.12981389 c -0.9637631,0 -1.7459502,0.89340471 -1.7459502,1.99420621 V 49.984974 c 0,1.102796 0.7821871,1.994206 1.7459502,1.994206 H 69.664135 c 0.965513,0 1.745953,-0.89141 1.745953,-1.994206 V 2.1240201 c 0,-1.1008015 -0.78044,-1.99420621 -1.745953,-1.99420621 z M 7.6828943,14.089258 c 3.3696827,0 6.1108257,3.130905 6.1108257,6.979724 v 9.971029 c 0,3.84882 -2.741143,6.979725 -6.1108257,6.979725 -3.369686,0 -6.1108286,-3.130905 -6.1108286,-6.979725 v -9.971029 c 0,-3.848819 2.7411426,-6.979724 6.1108286,-6.979724 z m 9.6027237,0 h 5.237849 c 3.851573,0 6.983803,3.577608 6.983803,7.976827 0,4.399219 -3.13223,7.976825 -6.983803,7.976825 h -1.745944 v 7.976826 H 17.285618 V 30.04291 26.054498 Z m 15.713558,0 h 10.4757 v 3.988413 h -6.983803 v 5.98262 h 5.23785 v 3.988412 h -5.23785 v 5.98262 h 6.983803 v 3.988413 h -10.4757 z m 13.967606,0 h 4.801357 l 3.92839,15.018868 V 14.089258 h 3.491906 V 38.019736 H 54.387069 L 50.458679,23.000868 V 38.019736 H 46.966782 Z M 7.6828943,18.077671 c -1.443904,0 -2.618928,1.342101 -2.618928,2.991311 v 9.971029 c 0,1.649211 1.175024,2.991312 2.618928,2.991312 1.443897,0 2.6189207,-1.342101 2.6189207,-2.991312 v -9.971029 c 0,-1.64921 -1.1750237,-2.991311 -2.6189207,-2.991311 z m 13.0946287,0 v 7.976827 h 1.745944 c 1.925787,0 3.491906,-1.788803 3.491906,-3.988413 0,-2.199609 -1.566119,-3.988414 -3.491906,-3.988414 z"
       id="path30"
       style="fill:#550000;stroke-width:1.86596" />
  </g>
  <g
     inkscape:groupmode="layer"
     id="layer3"
     inkscape:label="Open Sign 2" />
</svg>
